<svg xmlns="http://www.w3.org/2000/svg" width="105.31" height="167.66" viewBox="0 0 105.31 167.66"><path d="M98.4 61.36s-4.92 2.16-7.24-1.19c-3.25-4.72.68-8.46 1.44-9.05s3.13-2 3.13-2a8 8 0 01-2.17-5.17c-.15-4.34 4.67-10.19 5.18-11.73a4 4 0 00.07-1.51c-.91.15-3.3 2.56-6.15 3.3a3.89 3.89 0 01-3.14-.81c-.29-.38-.81-.9-1.49-.38-1.27 1-5.83 3.44-8.6 3.21a8.33 8.33 0 01-4.72-2.27s-1.06 4.24-3.65 4.36a3.79 3.79 0 01-3.75-4.19 45.12 45.12 0 002-8.3 14.07 14.07 0 00-.44-3.82c-.09.09-3 1.65-4.19-.3s-.15-2.75-.08-4.84-1.13-2.26-1.13-2.26a1.63 1.63 0 01-1.64 1.19c-1.8 0-4-1.78-5.76-4.47S53.41 0 53.41 0c-3.14 1.55-3.56 10.55-7.09 13.82-2 1.86-3.6.23-3.6.23a2.54 2.54 0 00-1.2 2c-.18 1.33.28 4-.22 5.76a2.19 2.19 0 01-3.13 1.45c-.58-.29-.61-1.32-1.33-1.23-.46.09-1 .23-.69 3 .21 1.93 1.49 5.66 1.49 7.39s-.73 4.48-3.66 4.71a4.76 4.76 0 01-4.33-2.09c-3.52 2.16-9-1.72-9-1.72a3.73 3.73 0 01-3.08 2c-2.31.23-7.84-3.37-8.37-3.67A16 16 0 007.75 31c-.22 2 4.7 8.6 4.75 14.06a6.75 6.75 0 01-2.29 5.17 15.8 15.8 0 015.16 4.94c2.46 3.91-2.36 7.23-5.31 6.72S6.62 63 6.17 63.46 3.78 65.69 3 65.69a2 2 0 00-1.43.53c8.08 3.6 8.52 7.32 8.52 7.32a12.64 12.64 0 013.68.54A9 9 0 0119.11 80c.23 1.55-1.57 2.9-1.57 2.9a3.11 3.11 0 002 1.72c.72.3 3.74-.08 5.38-.31s3.82-1.56 6.29-2.91 4.48-1.81 5-1.4.7.47 1.34-.24c6.67-7.45 10.92-7.18 13.16-4.94 1.51 1.5 1.58 5.69 1.58 9.28A92.35 92.35 0 0151 95c-.13 1.14-.37 4.41-.37 4.41.67-.68 2.85-1.19 3.29-1.5a1.7 1.7 0 00.76-1.19c.23-1.78-1.22-8.44-1.09-13.38 0-.52-.29-7.32 3.45-8.44s9.86 4.55 11 5.44 1.48.77 3.74.77a2.43 2.43 0 011.83.35 26.18 26.18 0 0010.49 3.91 6.37 6.37 0 004.73-1.43s-2.75-1.81-2.63-4.49c.15-3.5 2.67-5.07 7-5.46 3.23-7.1 12-8.06 12-8.06a11.6 11.6 0 01-6.8-4.57zM25 135.09a12.32 12.32 0 1112.31-12.31A12.32 12.32 0 0125 135.09zm0-20.28a8 8 0 108 8 8 8 0 00-8-8zm54.51 20.28a12.32 12.32 0 1112.32-12.31 12.32 12.32 0 01-12.32 12.31zm0-20.28a8 8 0 108 8 8 8 0 00-8-8zm22.1 6.36c-1.65-1.58-2.36-2.4-2.24-3.56a2.82 2.82 0 011.11-2.25 5.6 5.6 0 013.48-.67v-4.35a9.53 9.53 0 00-6 1.46 7.1 7.1 0 00-2.94 5.36c-.35 3.4 1.81 5.48 3.55 7.15s2.52 2.49 2.34 3.94a2.48 2.48 0 01-1 1.92c-1.16.82-3.23.69-4.15.54v4.39c.41 0 .9.07 1.44.07a9 9 0 005.2-1.44 6.88 6.88 0 002.82-4.94c.49-3.68-1.88-5.96-3.61-7.62zm-91.56 13.69H0v-24.08h4.35v19.73h5.7v4.35zm10.27 32.65H10.27v-24.07h4.34v19.73h5.71v4.34zm8.06.15l1.09-2.19H42l1 2.19h4.85l-12.1-24.55-12.23 24.55zm7.38-14.77l4.06 8.24h-8.18zm49.3-9.5h-7.83v24.23h7.83c6.2 0 10.7-5.1 10.7-12.12s-4.5-12.11-10.7-12.11zm0 19.86h-3.49v-15.51h3.49c4.37 0 6.36 4 6.36 7.74s-1.99 7.77-6.36 7.77zm-13.41-20H67.3v16.78L56.16 143.3h-4.35v24.28h4.35v-16.4l10.98 16.43h4.51v-24.36zm-12.53-15a8 8 0 111.05-9.56l3.73-2.24a12.31 12.31 0 10-.47 13.38h.07v-6.54h-4.38z" fill="#fff"/></svg>